<svg width="302" height="94" viewBox="0 0 302 94" fill="none" xmlns="http://www.w3.org/2000/svg"><path d="M45.906 1.313C51.25 1.313 55.938.938 59.922 0v66.234c0 5.344 1.687 6.891 6.14 6.891v2.016c-.454-.018-1.011-.042-1.65-.07-2.783-.12-7.104-.305-11.146-.305-4.06 0-8.58.184-11.523.304-.693.028-1.299.053-1.79.07v-2.015c4.5 0 6.14-1.547 6.14-6.89V11.53c0-5.765-1.5-8.484-6.14-8.484V1.03a64.77 64.77 0 005.953.282z" fill="#fff"/><path fill-rule="evenodd" clip-rule="evenodd" d="M84.134 50.016c0 13.359 6.422 18.562 12.515 18.562 3.844 0 8.719-1.312 12.61-7.687l1.734.656c-2.297 7.219-8.578 14.953-19.219 14.953-12.937 0-22.125-8.156-22.125-25.688 0-17.812 9.844-26.671 23.485-26.671 11.203 0 18.047 6.28 18.047 21.328h-26.86c-.14 1.406-.187 3-.187 4.547zm14.953-6.375c.187-9.375-1.828-17.438-6.516-17.438-4.312 0-7.734 5.016-8.531 17.438h15.047zm25.149-16.219c3.422-1.922 8.11-3.281 14.578-3.281 6.188 0 10.969 1.125 14.063 4.312 2.812 2.906 3.422 6.75 3.422 13.453v26.11c0 3.093.515 4.265 2.062 4.265 1.36 0 2.438-.797 3.516-1.64l.984 1.64c-2.906 2.344-6.093 3.516-10.968 3.516-7.032 0-9.188-3.656-9.235-7.781-3.281 5.39-8.765 7.78-14.156 7.78-7.172 0-12.141-3.937-12.141-10.921 0-6.938 4.594-10.828 13.5-14.11l1.19-.447c6.498-2.44 11.42-4.286 11.42-8.177v-7.5c0-5.016-2.157-8.578-7.828-8.578-2.297 0-5.11.656-6.844 2.343 3.422 1.172 5.672 3.657 5.672 7.547 0 3.984-3.094 6.89-7.828 6.89-4.172 0-6.797-3.187-6.797-7.406 0-3.515 2.25-6.187 5.39-8.015zm11.766 42.234c2.344 0 4.453-1.031 6.469-3.89V46.078c-.891 1.453-2.719 2.719-5.953 4.734-3.375 2.485-6.516 5.626-6.516 11.391 0 5.297 2.578 7.453 6 7.453z" fill="#fff"/><path d="M198.417 25.781c5.344 0 10.031-.422 14.015-1.36v40.313c0 5.72 1.5 8.438 6.141 8.438v2.016a64.77 64.77 0 00-5.953-.282c-5.344 0-10.031.375-14.016 1.313v-8.672c-3.14 6.422-8.859 8.953-15.468 8.953-5.297 0-8.485-1.547-10.5-3.797-2.11-2.39-2.907-6.094-2.907-12.422V35.953c0-5.766-1.5-8.484-6.14-8.484v-2.016c2.015.188 4.031.328 5.953.328 5.344 0 9.984-.422 14.015-1.36V64.22c0 4.781.938 8.062 5.719 8.062 5.11 0 9.328-4.781 9.328-11.11V35.954c0-5.766-1.5-8.484-6.14-8.484v-2.016c2.015.188 4.031.328 5.953.328zM241.285 9.75v15.797h9.681v-.094c.322.033.648.064.976.094h.687v.06c3.72.314 7.721.456 11.509.456 5.109 0 9.468-.282 13.312-.61v2.016c-3.141 0-6.094.047-6.094 2.718 0 .704.235 1.594.703 2.72l11.766 28.359 6.609-18.516c1.032-3.047 1.547-5.578 1.547-7.64 0-4.97-2.812-7.36-7.125-7.641v-2.016c2.953.281 6.703.375 9.282.375 2.578 0 5.671-.094 7.359-.375v2.016c-2.391.61-4.594 2.531-6.609 8.25l-13.5 37.922-3.704 10.312c-1.171 3.281-2.484 5.438-4.171 6.844-1.922 1.594-4.641 2.39-8.391 2.39-4.594 0-10.406-2.203-10.406-7.734 0-3.937 3-6.469 7.64-6.469 4.266 0 7.172 2.063 7.172 6.094 0 2.531-1.64 5.016-4.781 6.14.656.188 1.641.188 2.203.188 3.844 0 6.891-2.344 8.719-7.64l1.594-4.641-20.344-46.266c-2.297-4.922-4.547-5.39-5.953-5.39h-9.681v38.718c0 3.938 1.406 5.344 4.219 5.344 2.344 0 4.687-1.5 6.562-5.765l1.594.89c-2.109 5.719-6.047 9.844-13.125 9.844-4.312 0-7.453-1.078-9.609-3.234-2.766-2.813-3.469-6.704-3.469-13.407V27.47h-8.063v-1.922h8.063V12.844c5.391-.047 9.844-.938 13.828-3.094zM12.563 4.875c2.811-2.766 7.78-4.828 13.17-4.828 4.453 0 7.688 1.266 10.266 3.187 1.828 1.5 3.281 3.985 3.281 7.172 0 3.563-2.765 6.703-6.797 6.703-4.312 0-7.312-2.578-7.312-6.843 0-3.282 1.922-6.047 5.625-7.125-.422-.75-1.594-1.36-3.469-1.36-2.484 0-4.172.985-5.203 2.532-1.313 1.921-1.781 5.109-1.781 12.515v8.719h10.265v1.922H20.344V65.25c0 6.234 3.375 7.875 9.047 7.875v2.016c-.728-.02-1.61-.05-2.612-.084-3.589-.12-8.733-.291-13.935-.291-3.894 0-7.968.18-10.692.3-.686.03-1.287.056-1.777.075v-2.016c4.5 0 6.14-1.547 6.14-6.89V27.468H0v-1.922h6.516c0-11.297 1.593-16.36 6.046-20.672z" fill="#fff"/></svg>