<svg width="328" height="102" viewBox="0 0 328 102" fill="none" xmlns="http://www.w3.org/2000/svg"><path d="M49.942 1.437c5.813 0 10.913-.41 15.247-1.437v72.498c0 5.85 1.836 7.542 6.68 7.542v2.206c-.494-.019-1.1-.045-1.794-.075-3.028-.131-7.73-.335-12.127-.335-4.416 0-9.334.202-12.535.333-.754.03-1.413.058-1.948.078V80.04c4.896 0 6.68-1.693 6.68-7.542V12.622c0-6.311-1.631-9.287-6.68-9.287V1.129a70.13 70.13 0 006.477.308z" fill="#002087"/><path fill-rule="evenodd" clip-rule="evenodd" d="M91.53 54.745c0 14.623 6.986 20.318 13.615 20.318 4.182 0 9.486-1.436 13.718-8.414l1.887.718c-2.499 7.902-9.332 16.367-20.908 16.367-14.075 0-24.07-8.927-24.07-28.116 0-19.497 10.709-29.195 25.549-29.195 12.188 0 19.633 6.876 19.633 23.346h-29.22c-.153 1.539-.204 3.283-.204 4.977zm16.267-6.977c.204-10.262-1.989-19.087-7.088-19.087-4.692 0-8.415 5.49-9.282 19.087h16.37zm27.36-17.753c3.723-2.104 8.822-3.591 15.86-3.591 6.731 0 11.933 1.23 15.299 4.72 3.059 3.181 3.722 7.388 3.722 14.725v28.579c0 3.386.561 4.669 2.244 4.669 1.479 0 2.652-.873 3.825-1.796l1.071 1.796c-3.162 2.565-6.63 3.848-11.933 3.848-7.65 0-9.996-4.002-10.046-8.517-3.57 5.9-9.537 8.517-15.401 8.517-7.802 0-13.208-4.31-13.208-11.955 0-7.594 4.998-11.852 14.687-15.444l1.294-.49c7.07-2.67 12.424-4.691 12.424-8.95v-8.21c0-5.49-2.346-9.389-8.517-9.389-2.499 0-5.558.718-7.445 2.566 3.723 1.282 6.17 4.002 6.17 8.26 0 4.361-3.365 7.542-8.516 7.542-4.538 0-7.394-3.489-7.394-8.106 0-3.848 2.448-6.773 5.864-8.774zm12.8 46.228c2.55 0 4.845-1.128 7.038-4.258v-21.55c-.969 1.591-2.958 2.976-6.477 5.183-3.672 2.719-7.088 6.157-7.088 12.467 0 5.798 2.804 8.159 6.527 8.159z" fill="#002087"/><path d="M215.859 28.22c5.813 0 10.913-.462 15.247-1.489v44.125c0 6.26 1.632 9.236 6.681 9.236v2.206a70.06 70.06 0 00-6.477-.308c-5.813 0-10.913.41-15.247 1.437v-9.492c-3.417 7.029-9.638 9.8-16.829 9.8-5.762 0-9.23-1.694-11.423-4.156-2.295-2.617-3.162-6.67-3.162-13.597V39.353c0-6.31-1.631-9.287-6.68-9.287V27.86c2.193.205 4.386.36 6.476.36 5.814 0 10.863-.462 15.248-1.489v43.56c0 5.234 1.02 8.826 6.222 8.826 5.558 0 10.148-5.234 10.148-12.16V39.353c0-6.31-1.632-9.287-6.681-9.287V27.86c2.193.205 4.386.36 6.477.36zm46.636-17.548v17.29h10.532v-.102c.351.036.705.07 1.062.103h.747v.066c4.048.343 8.4.498 12.521.498 5.558 0 10.301-.308 14.482-.667v2.206c-3.416 0-6.629.052-6.629 2.976 0 .77.255 1.745.765 2.976l12.8 31.041 7.19-20.266c1.122-3.335 1.683-6.106 1.683-8.363 0-5.44-3.06-8.056-7.751-8.364V27.86c3.212.308 7.292.41 10.097.41 2.804 0 6.17-.102 8.006-.41v2.206c-2.601.667-4.998 2.771-7.19 9.03l-14.687 41.509-4.029 11.287c-1.275 3.592-2.703 5.952-4.538 7.491-2.091 1.745-5.049 2.617-9.129 2.617-4.997 0-11.321-2.412-11.321-8.466 0-4.31 3.264-7.08 8.313-7.08 4.64 0 7.802 2.257 7.802 6.67 0 2.77-1.785 5.49-5.202 6.721.714.205 1.785.205 2.397.205 4.182 0 7.497-2.565 9.485-8.363l1.734-5.08-22.132-50.64c-2.499-5.387-4.946-5.9-6.476-5.9h-10.532v42.38c0 4.31 1.53 5.849 4.59 5.849 2.55 0 5.099-1.642 7.139-6.311l1.734.975c-2.295 6.26-6.578 10.774-14.279 10.774-4.691 0-8.108-1.18-10.454-3.54-3.009-3.078-3.774-7.337-3.774-14.674V30.066h-8.771v-2.103h8.771V14.058c5.865-.051 10.71-1.026 15.044-3.386zM13.667 5.336c3.06-3.027 8.465-5.285 14.33-5.285 4.844 0 8.363 1.386 11.168 3.49 1.988 1.641 3.57 4.36 3.57 7.85 0 3.899-3.01 7.336-7.395 7.336-4.692 0-7.955-2.822-7.955-7.49 0-3.592 2.09-6.62 6.12-7.8-.46-.82-1.735-1.487-3.775-1.487-2.702 0-4.538 1.077-5.66 2.77-1.428 2.104-1.938 5.593-1.938 13.7v9.543H33.3v2.103H22.132v41.355c0 6.823 3.672 8.62 9.842 8.62v2.206c-.79-.023-1.75-.055-2.841-.092-3.904-.131-9.501-.319-15.16-.319-4.237 0-8.668.196-11.632.328-.746.033-1.4.062-1.933.082V80.04c4.896 0 6.68-1.693 6.68-7.542V30.066H0v-2.103h7.088c0-12.365 1.734-17.907 6.579-22.627z" fill="#002087"/></svg>